<?xml version="1.0" encoding="UTF-8" standalone="no"?><!DOCTYPE svg PUBLIC "-//W3C//DTD SVG 1.1//EN" "http://www.w3.org/Graphics/SVG/1.1/DTD/svg11.dtd"><svg width="100%" height="100%" viewBox="0 0 150 150" version="1.1" xmlns="http://www.w3.org/2000/svg" xmlns:xlink="http://www.w3.org/1999/xlink" xml:space="preserve" xmlns:serif="http://www.serif.com/" style="fill-rule:evenodd;clip-rule:evenodd;stroke-linejoin:round;stroke-miterlimit:1.41421;"><g id="solid"><path id="bg" d="M118.764,104.176c0,8.023 -6.565,14.588 -14.588,14.588l-58.352,0c-8.023,0 -14.588,-6.565 -14.588,-14.588l0,-58.352c0,-8.023 6.565,-14.588 14.588,-14.588l58.352,0c8.023,0 14.588,6.565 14.588,14.588l0,58.352Z" style="fill:#563d7c;fill-rule:nonzero;"/><path id="B" d="M55.02,50.258l24.814,0c4.577,0 8.252,1.044 11.013,3.146c2.76,2.103 4.147,5.263 4.147,9.511c0,2.574 -0.629,4.776 -1.888,6.608c-1.259,1.83 -3.06,3.26 -5.406,4.261l0,0.144c3.147,0.671 5.535,2.159 7.151,4.462c1.616,2.317 2.432,5.205 2.432,8.695c0,2.003 -0.358,3.876 -1.073,5.606c-0.715,1.745 -1.831,3.247 -3.361,4.505c-1.53,1.259 -3.475,2.26 -5.864,3.004c-2.388,0.744 -5.22,1.115 -8.509,1.115l-23.456,0l0,-51.057Zm8.939,21.381l14.588,0c2.145,0 3.933,-0.6 5.363,-1.83c1.431,-1.231 2.146,-2.975 2.146,-5.263c0,-2.575 -0.645,-4.392 -1.931,-5.436c-1.288,-1.043 -3.147,-1.573 -5.578,-1.573l-14.588,0l0,14.102Zm0,22.383l15.803,0c2.718,0 4.835,-0.702 6.322,-2.117c1.502,-1.402 2.26,-3.404 2.26,-5.978c0,-2.531 -0.744,-4.462 -2.26,-5.836c-1.516,-1.373 -3.604,-2.03 -6.322,-2.03l-15.803,0l0,15.961Z" style="fill:#fff;fill-rule:nonzero;"/></g></svg>