<?xml version="1.0" encoding="UTF-8" standalone="no"?><!DOCTYPE svg PUBLIC "-//W3C//DTD SVG 1.1//EN" "http://www.w3.org/Graphics/SVG/1.1/DTD/svg11.dtd"><svg width="100%" height="100%" viewBox="0 0 150 150" version="1.1" xmlns="http://www.w3.org/2000/svg" xmlns:xlink="http://www.w3.org/1999/xlink" xml:space="preserve" xmlns:serif="http://www.serif.com/" style="fill-rule:evenodd;clip-rule:evenodd;stroke-linejoin:round;stroke-miterlimit:1.41421;"><rect x="-1175" y="-791.396" width="2500" height="1732.79" style="fill:none;"/><path d="M43.456,108.919l-4.689,0c-0.166,-7.914 -0.623,-15.355 -1.369,-22.327l-0.042,0l-7.139,22.327l-3.57,0l-7.096,-22.327l-0.041,0c-0.526,6.694 -0.858,14.136 -0.996,22.327l-4.274,0c0.276,-9.96 0.968,-19.298 2.074,-28.015l5.812,0l6.764,20.585l0.041,0l6.806,-20.585l5.56,0c1.218,10.21 1.938,19.549 2.159,28.015m20.335,-20.669c-1.91,10.36 -4.428,17.887 -7.554,22.586c-2.436,3.617 -5.104,5.428 -8.01,5.428c-0.775,0 -1.731,-0.234 -2.863,-0.698l0,-2.498c0.553,0.08 1.203,0.125 1.95,0.125c1.357,0 2.448,-0.373 3.28,-1.122c0.995,-0.911 1.492,-1.936 1.492,-3.069c0,-0.778 -0.388,-2.367 -1.162,-4.774l-5.145,-15.979l4.606,0l3.693,11.951c0.83,2.714 1.177,4.608 1.038,5.687c2.02,-5.393 3.43,-11.275 4.234,-17.639l4.441,0l0,0.002Z" style="fill:#5d87a1;fill-rule:nonzero;"/><path d="M126.205,108.919l-13.319,0l0,-28.015l4.48,0l0,24.567l8.839,0l0,3.448Zm-16.806,0.677l-5.15,-2.542c0.457,-0.375 0.894,-0.781 1.287,-1.251c2.189,-2.571 3.281,-6.374 3.281,-11.411c0,-9.268 -3.637,-13.904 -10.914,-13.904c-3.568,0 -6.351,1.176 -8.342,3.529c-2.187,2.573 -3.279,6.362 -3.279,11.372c0,4.924 0.968,8.537 2.904,10.828c1.771,2.076 4.441,3.115 8.012,3.115c1.332,0 2.554,-0.163 3.668,-0.492l6.705,3.904l1.828,-3.148Zm-16.683,-6.283c-1.134,-1.825 -1.702,-4.755 -1.702,-8.795c0,-7.054 2.143,-10.585 6.433,-10.585c2.243,0 3.887,0.845 4.938,2.53c1.132,1.828 1.702,4.732 1.702,8.716c0,7.111 -2.145,10.668 -6.432,10.668c-2.244,0.001 -3.887,-0.841 -4.939,-2.534m-8.387,-2.159c0,2.376 -0.871,4.325 -2.613,5.852c-1.743,1.52 -4.081,2.282 -7.01,2.282c-2.74,0 -5.397,-0.875 -7.968,-2.617l1.204,-2.405c2.213,1.108 4.216,1.659 6.015,1.659c1.688,0 3.007,-0.375 3.964,-1.117c0.956,-0.744 1.526,-1.789 1.526,-3.11c0,-1.665 -1.161,-3.087 -3.29,-4.279c-1.964,-1.078 -5.891,-3.332 -5.891,-3.332c-2.128,-1.551 -3.194,-3.217 -3.194,-5.96c0,-2.271 0.795,-4.104 2.385,-5.498c1.592,-1.4 3.646,-2.098 6.164,-2.098c2.601,0 4.964,0.697 7.094,2.076l-1.08,2.406c-1.822,-0.773 -3.619,-1.16 -5.392,-1.16c-1.436,0 -2.545,0.345 -3.317,1.038c-0.777,0.691 -1.256,1.574 -1.256,2.658c0,1.656 1.185,3.097 3.372,4.312c1.99,1.08 6.015,3.373 6.015,3.373c2.182,1.548 3.272,3.198 3.272,5.92" style="fill:#f8981d;fill-rule:nonzero;"/><path d="M131.83,71.521c-2.709,-0.069 -4.807,0.204 -6.567,0.949c-0.509,0.203 -1.317,0.203 -1.387,0.845c0.274,0.272 0.306,0.711 0.544,1.086c0.406,0.676 1.114,1.587 1.76,2.062c0.709,0.543 1.421,1.082 2.168,1.556c1.316,0.814 2.809,1.288 4.092,2.1c0.747,0.472 1.49,1.083 2.239,1.591c0.367,0.271 0.603,0.71 1.081,0.88l0,-0.104c-0.24,-0.304 -0.308,-0.744 -0.542,-1.083l-1.017,-0.981c-0.982,-1.319 -2.203,-2.47 -3.519,-3.416c-1.084,-0.747 -3.454,-1.762 -3.893,-3.01l-0.069,-0.069c0.745,-0.07 1.628,-0.34 2.336,-0.547c1.151,-0.304 2.201,-0.235 3.383,-0.539c0.543,-0.136 1.083,-0.306 1.628,-0.474l0,-0.305c-0.612,-0.61 -1.049,-1.42 -1.693,-1.996c-1.724,-1.489 -3.623,-2.945 -5.585,-4.163c-1.051,-0.679 -2.403,-1.116 -3.522,-1.693c-0.403,-0.204 -1.083,-0.304 -1.32,-0.643c-0.608,-0.745 -0.949,-1.725 -1.389,-2.607c-0.979,-1.86 -1.929,-3.924 -2.774,-5.891c-0.611,-1.319 -0.982,-2.637 -1.727,-3.857c-3.488,-5.754 -7.277,-9.239 -13.099,-12.659c-1.251,-0.712 -2.74,-1.016 -4.33,-1.389l-2.54,-0.134c-0.542,-0.238 -1.084,-0.882 -1.557,-1.186c-1.932,-1.218 -6.905,-3.857 -8.326,-0.373c-0.915,2.203 1.354,4.369 2.133,5.486c0.575,0.775 1.321,1.658 1.723,2.539c0.238,0.575 0.305,1.186 0.544,1.794c0.542,1.489 1.048,3.146 1.76,4.536c0.372,0.709 0.777,1.454 1.252,2.095c0.271,0.375 0.744,0.541 0.848,1.153c-0.472,0.674 -0.51,1.691 -0.781,2.538c-1.217,3.824 -0.742,8.562 0.984,11.372c0.54,0.847 1.829,2.71 3.552,1.996c1.526,-0.609 1.188,-2.538 1.627,-4.23c0.1,-0.409 0.034,-0.677 0.237,-0.945l0,0.066c0.472,0.947 0.949,1.859 1.386,2.809c1.05,1.657 2.879,3.384 4.402,4.532c0.811,0.613 1.453,1.66 2.469,2.034l0,-0.101l-0.067,0c-0.206,-0.304 -0.506,-0.44 -0.777,-0.675c-0.61,-0.61 -1.286,-1.355 -1.76,-2.031c-1.419,-1.896 -2.675,-3.995 -3.789,-6.162c-0.546,-1.051 -1.016,-2.2 -1.455,-3.249c-0.205,-0.405 -0.205,-1.016 -0.545,-1.22c-0.509,0.744 -1.251,1.389 -1.623,2.3c-0.644,1.458 -0.711,3.251 -0.95,5.116l-0.133,0.065c-1.079,-0.271 -1.454,-1.386 -1.863,-2.333c-1.014,-2.405 -1.184,-6.265 -0.305,-9.039c0.236,-0.71 1.255,-2.944 0.848,-3.62c-0.203,-0.648 -0.881,-1.016 -1.253,-1.527c-0.436,-0.641 -0.915,-1.453 -1.219,-2.165c-0.812,-1.895 -1.221,-3.994 -2.095,-5.888c-0.409,-0.882 -1.118,-1.796 -1.693,-2.608c-0.645,-0.914 -1.354,-1.557 -1.864,-2.64c-0.169,-0.372 -0.405,-0.981 -0.134,-1.386c0.066,-0.272 0.204,-0.373 0.474,-0.441c0.438,-0.371 1.691,0.1 2.131,0.304c1.255,0.508 2.304,0.981 3.351,1.692c0.474,0.34 0.982,0.983 1.59,1.152l0.712,0c1.081,0.236 2.3,0.066 3.318,0.372c1.793,0.576 3.417,1.421 4.874,2.334c4.434,2.811 8.09,6.806 10.558,11.578c0.405,0.777 0.577,1.489 0.947,2.3c0.713,1.66 1.594,3.353 2.302,4.977c0.711,1.59 1.389,3.214 2.405,4.535c0.506,0.71 2.541,1.083 3.454,1.455c0.675,0.304 1.726,0.574 2.334,0.946c1.152,0.71 2.299,1.524 3.382,2.304c0.539,0.406 2.233,1.252 2.334,1.93m-34.527,-29.414c-0.467,-0.005 -0.933,0.052 -1.385,0.17l0,0.068l0.065,0c0.273,0.541 0.747,0.916 1.085,1.388c0.272,0.543 0.509,1.081 0.776,1.623l0.065,-0.067c0.478,-0.338 0.715,-0.88 0.715,-1.693c-0.205,-0.239 -0.237,-0.473 -0.408,-0.71c-0.2,-0.339 -0.639,-0.508 -0.913,-0.779" style="fill:#5d87a1;fill-rule:nonzero;"/><path d="M135.054,108.915l0.701,0l0,-3.433l-1.052,0l-0.858,2.343l-0.932,-2.343l-1.013,0l0,3.433l0.662,0l0,-2.612l0.037,0l0.977,2.612l0.505,0l0.973,-2.612l0,2.612Zm-5.65,0l0.742,0l0,-2.851l0.972,0l0,-0.582l-2.726,0l0,0.582l1.011,0l0.001,2.851Z" style="fill:#f8981d;fill-rule:nonzero;"/></svg>