<?xml version="1.0" encoding="UTF-8" standalone="no"?><!DOCTYPE svg PUBLIC "-//W3C//DTD SVG 1.1//EN" "http://www.w3.org/Graphics/SVG/1.1/DTD/svg11.dtd"><svg width="100%" height="100%" viewBox="0 0 150 150" version="1.1" xmlns="http://www.w3.org/2000/svg" xmlns:xlink="http://www.w3.org/1999/xlink" xml:space="preserve" xmlns:serif="http://www.serif.com/" style="fill-rule:evenodd;clip-rule:evenodd;stroke-linejoin:round;stroke-miterlimit:1.41421;"><g id="g39"><path id="path41" d="M53.969,81.054c-0.37,-0.2 -0.654,-0.627 -0.654,-1.197c0,-0.768 0.597,-1.391 1.396,-1.391c0.284,0 0.541,0.083 0.739,0.197c1.454,0.969 2.963,1.454 4.328,1.454c1.48,0 2.334,-0.628 2.334,-1.625l0,-0.057c0,-1.167 -1.593,-1.565 -3.36,-2.106c-2.22,-0.627 -4.697,-1.537 -4.697,-4.413l0,-0.058c0,-2.848 2.363,-4.584 5.353,-4.584c1.595,0 3.274,0.456 4.727,1.224c0.485,0.257 0.825,0.713 0.825,1.309c0,0.798 -0.626,1.398 -1.423,1.398c-0.286,0 -0.457,-0.058 -0.682,-0.172c-1.226,-0.628 -2.479,-1.027 -3.532,-1.027c-1.339,0 -2.108,0.628 -2.108,1.483l0,0.055c0,1.111 1.623,1.566 3.389,2.136c2.192,0.684 4.67,1.68 4.67,4.385l0,0.058c0,3.16 -2.45,4.724 -5.582,4.724c-1.906,0 -3.985,-0.596 -5.723,-1.793" style="fill:#5fb832;fill-rule:nonzero;"/><path id="path43" d="M78.621,75.075l0,-0.057c0,-2.903 -1.965,-4.811 -4.299,-4.811c-2.335,0 -4.385,1.936 -4.385,4.811l0,0.057c0,2.876 2.05,4.814 4.385,4.814c2.363,0 4.299,-1.852 4.299,-4.814m-12.044,-6.065c0,-0.967 0.739,-1.736 1.709,-1.736c0.967,0 1.737,0.769 1.737,1.736l0,1.026c1.11,-1.565 2.676,-2.818 5.125,-2.818c3.53,0 6.975,2.789 6.975,7.8l0,0.057c0,4.984 -3.416,7.802 -6.975,7.802c-2.505,0 -4.072,-1.254 -5.125,-2.646l0,5.321c0,0.972 -0.77,1.712 -1.737,1.712c-0.939,0 -1.709,-0.74 -1.709,-1.712l0,-16.542" style="fill:#5fb832;fill-rule:nonzero;"/><path id="path45" d="M83.429,69.012c0,-0.966 0.738,-1.736 1.706,-1.736c0.971,0 1.738,0.77 1.738,1.736l0,0.828c0.172,-1.29 2.277,-2.564 3.787,-2.564c1.081,0 1.709,0.711 1.709,1.707c0,0.91 -0.599,1.509 -1.368,1.651c-2.449,0.427 -4.128,2.57 -4.128,5.534l0,4.968c0,0.941 -0.767,1.709 -1.738,1.709c-0.939,0 -1.706,-0.741 -1.706,-1.709l0,-12.124" style="fill:#5fb832;fill-rule:nonzero;"/><path id="path47" d="M93.672,69.019c0,-0.968 0.742,-1.738 1.709,-1.738c0.968,0 1.736,0.77 1.736,1.738l0,12.12c0,0.966 -0.768,1.706 -1.736,1.706c-0.941,0 -1.709,-0.74 -1.709,-1.706l0,-12.12" style="fill:#5fb832;fill-rule:nonzero;"/><path id="path49" d="M98.855,69.026c0,-0.968 0.74,-1.737 1.707,-1.737c0.969,0 1.737,0.769 1.737,1.737l0,0.706c0.97,-1.395 2.363,-2.451 4.697,-2.451c3.389,0 5.355,2.278 5.355,5.752l0,8.104c0,0.967 -0.742,1.708 -1.71,1.708c-0.968,0 -1.736,-0.741 -1.736,-1.708l0,-7.05c0,-2.334 -1.167,-3.673 -3.218,-3.673c-1.992,0 -3.388,1.395 -3.388,3.731l0,6.992c0,0.967 -0.768,1.708 -1.737,1.708c-0.939,0 -1.707,-0.741 -1.707,-1.708l0,-12.111" style="fill:#5fb832;fill-rule:nonzero;"/><path id="path51" d="M121.457,79.858c-2.365,0 -4.3,-1.852 -4.3,-4.813l0,-0.056c0,-2.904 1.963,-4.812 4.3,-4.812c2.335,0 4.385,1.937 4.385,4.812l0,0.056c0,2.876 -2.05,4.813 -4.385,4.813m6.033,-12.614c-0.966,0 -1.735,0.77 -1.735,1.737l0,1.024c-1.112,-1.565 -2.676,-2.817 -5.123,-2.817c-3.533,0 -6.977,2.789 -6.977,7.801l0,0.056c0,4.983 3.416,7.8 6.977,7.8c2.49,0 4.053,-1.239 5.107,-2.624c-0.172,2.707 -1.83,4.137 -4.737,4.137c-1.736,0 -3.246,-0.429 -4.614,-1.199c-0.171,-0.083 -0.367,-0.14 -0.624,-0.14c-0.797,0 -1.454,0.656 -1.454,1.422c0,0.656 0.371,1.139 0.97,1.367c1.82,0.883 3.698,1.339 5.806,1.339c2.706,0 4.814,-0.655 6.181,-2.022c1.25,-1.254 1.933,-3.131 1.933,-5.666l0,-10.478c0,-0.967 -0.74,-1.737 -1.71,-1.737" style="fill:#5fb832;fill-rule:nonzero;"/><path id="path53" d="M97.131,63.132c0,0.958 -0.778,1.737 -1.737,1.737c-0.96,0 -1.736,-0.779 -1.736,-1.737c0,-0.961 0.776,-1.736 1.736,-1.736c0.959,0 1.737,0.775 1.737,1.736" style="fill:#5fb832;fill-rule:nonzero;"/><path id="path55" d="M42.41,81.816c-3.82,5.089 -11.978,3.371 -17.209,3.618c0,0 -0.927,0.051 -1.859,0.205c0,0 0.352,-0.151 0.802,-0.306c3.674,-1.27 5.41,-1.525 7.643,-2.672c4.194,-2.149 8.369,-6.829 9.218,-11.691c-1.596,4.676 -6.452,8.701 -10.873,10.335c-3.026,1.117 -8.499,2.204 -8.5,2.204c0.002,0.004 -0.218,-0.114 -0.221,-0.117c-3.722,-1.811 -3.829,-9.872 2.93,-12.47c2.964,-1.14 5.798,-0.514 9.002,-1.276c3.418,-0.813 7.375,-3.374 8.983,-6.723c1.804,5.349 3.97,13.717 0.084,18.893Zm0.066,-20.55c-0.454,1.08 -1.009,2.054 -1.649,2.924c-2.816,-2.89 -6.746,-4.69 -11.09,-4.69c-8.546,0 -15.497,6.952 -15.497,15.496c0,4.478 1.912,8.518 4.96,11.349l0.339,0.301c-0.566,-0.462 -0.653,-1.294 -0.194,-1.862c0.462,-0.567 1.295,-0.655 1.862,-0.196c0.569,0.461 0.655,1.295 0.195,1.863c-0.459,0.569 -1.293,0.655 -1.861,0.196l0.231,0.205c2.696,2.27 6.172,3.641 9.965,3.641c8.168,0 14.875,-6.356 15.449,-14.379c0.425,-3.928 -0.735,-8.916 -2.71,-14.848" style="fill:#5fb832;fill-rule:nonzero;"/><path id="path57" d="M133.235,68.329l-0.541,0l0,0.717l0.541,0c0.175,0 0.367,-0.142 0.367,-0.35c0,-0.226 -0.192,-0.367 -0.367,-0.367Zm0.334,1.774l-0.526,-0.799l-0.349,0l0,0.799l-0.283,0l0,-2.024l0.824,0c0.342,0 0.658,0.242 0.658,0.617c0,0.449 -0.4,0.6 -0.516,0.6l0.542,0.807l-0.35,0Zm-0.484,-2.515c-0.833,0 -1.5,0.666 -1.5,1.5c0,0.824 0.667,1.499 1.5,1.499c0.824,0 1.499,-0.675 1.499,-1.499c0,-0.834 -0.675,-1.5 -1.499,-1.5Zm0,3.266c-0.975,0 -1.766,-0.792 -1.766,-1.766c0,-0.984 0.791,-1.767 1.766,-1.767c0.983,0 1.767,0.783 1.767,1.767c0,0.974 -0.784,1.766 -1.767,1.766" style="fill:#5fb832;fill-rule:nonzero;"/></g></svg>